<svg xmlns="http://www.w3.org/2000/svg" width="35.7" height="40" viewBox="0 0 35.7 40">
  <path id="attractions_FILL1_wght400_GRAD0_opsz48" d="M12.05,44l2.6-5.95q-.85-.6-1.525-1.175T11.75,35.6a3.611,3.611,0,0,1-.875.3A4.271,4.271,0,0,1,10,36a3.841,3.841,0,0,1-3.85-3.85,3.87,3.87,0,0,1,.475-1.875A3.136,3.136,0,0,1,7.8,29a22.382,22.382,0,0,1-.55-2.5,16.116,16.116,0,0,1-.2-2.55,18.207,18.207,0,0,1,.175-2.575A15.143,15.143,0,0,1,7.8,18.9a4.129,4.129,0,0,1-1.175-1.325A3.592,3.592,0,0,1,6.15,15.75,3.841,3.841,0,0,1,10,11.9a3.925,3.925,0,0,1,.85.1,3.676,3.676,0,0,1,.85.3,17.646,17.646,0,0,1,3.825-3A18.133,18.133,0,0,1,20.15,7.45a4.019,4.019,0,0,1,1.325-2.525,3.9,3.9,0,0,1,5.075.025,3.825,3.825,0,0,1,1.3,2.5,26,26,0,0,1,4.8,1.725A12.475,12.475,0,0,1,36.6,12.15q.35-.1.7-.175A3.332,3.332,0,0,1,38,11.9a3.841,3.841,0,0,1,3.85,3.85,3.654,3.654,0,0,1-.475,1.9A3.693,3.693,0,0,1,40.2,18.9a16.725,16.725,0,0,1,.575,2.5,18.484,18.484,0,0,1,0,5.075A15.143,15.143,0,0,1,40.2,28.95a3.29,3.29,0,0,1,1.25,1.45,4.3,4.3,0,0,1,.4,1.75A3.841,3.841,0,0,1,38,36a4.271,4.271,0,0,1-.875-.1,2.829,2.829,0,0,1-.825-.3,16.47,16.47,0,0,1-1.35,1.3,17.78,17.78,0,0,1-1.5,1.15L36,44H33.15l-2.1-4.6q-.85.3-1.6.55t-1.6.5A3.957,3.957,0,0,1,26.525,43a3.992,3.992,0,0,1-5.05,0,3.957,3.957,0,0,1-1.325-2.55q-.85-.25-1.625-.5a10.5,10.5,0,0,1-1.475-.6L14.85,44Zm3.7-8.5,3.55-7.75A5.455,5.455,0,0,1,17.9,24a5.755,5.755,0,0,1,1.875-4.3,6.119,6.119,0,0,1,4.375-1.8,5.626,5.626,0,0,1,4.225,1.8A6,6,0,0,1,30.1,24a6.071,6.071,0,0,1-.325,2.025A4.889,4.889,0,0,1,28.7,27.75l3.55,7.75q.55-.4,1.125-.875A10.416,10.416,0,0,0,34.45,33.6q-.1-.3-.2-.675a3,3,0,0,1-.1-.775,4.41,4.41,0,0,1,.875-2.75,2.753,2.753,0,0,1,2.525-1.05,12.007,12.007,0,0,0,.525-2.125,14.779,14.779,0,0,0,.175-2.275,14.157,14.157,0,0,0-.175-2.275A16.363,16.363,0,0,0,37.6,19.6a3.884,3.884,0,0,1-2.475-1.3,3.728,3.728,0,0,1-.975-2.55,3.841,3.841,0,0,1,.075-.8,5.331,5.331,0,0,1,.225-.75,15.986,15.986,0,0,0-7.3-4.15,3.564,3.564,0,0,1-1.225,1.15A3.641,3.641,0,0,1,24,11.7a3.511,3.511,0,0,1-1.9-.5,4.188,4.188,0,0,1-1.25-1.15,18.438,18.438,0,0,0-4.025,1.6A12.063,12.063,0,0,0,13.55,14.3a2.505,2.505,0,0,1,.25.725,4.793,4.793,0,0,1,.05.725,3.554,3.554,0,0,1-1.025,2.625A4.157,4.157,0,0,1,10.45,19.6a12.2,12.2,0,0,0-.525,2.075A14.157,14.157,0,0,0,9.75,23.95a14.3,14.3,0,0,0,.175,2.25,12.1,12.1,0,0,0,.525,2.1,4.072,4.072,0,0,1,2.5,1.4,3.774,3.774,0,0,1,.9,2.45,3.841,3.841,0,0,1-.075.8,3.744,3.744,0,0,1-.175.6q.5.55,1.025,1.025t1.125.925ZM18,36.85q.6.25,1.325.525a13.591,13.591,0,0,0,1.525.475,5.138,5.138,0,0,1,1.3-1.175A3.392,3.392,0,0,1,24,36.2a3.79,3.79,0,0,1,1.925.475A3.206,3.206,0,0,1,27.15,37.85a12.949,12.949,0,0,0,1.525-.45q.675-.25,1.225-.5l-3.25-7.55a4.134,4.134,0,0,1-1.3.575,5.753,5.753,0,0,1-1.4.175,5.075,5.075,0,0,1-1.4-.2,4.614,4.614,0,0,1-1.3-.6Z" transform="translate(-6.15 -4)" fill="#fff"/>
</svg>
