<svg xmlns="http://www.w3.org/2000/svg" width="248" height="41.455" viewBox="0 0 248 41.455">
  <g id="logo" transform="translate(-371 -271)">
    <g id="Grupo_2" data-name="Grupo 2">
      <path id="un-logo" d="M38.444,36.9a1.758,1.758,0,0,1,.2-.1c.068-.029.053,0,.061.033a7.1,7.1,0,0,1-3.1,1.833,6.244,6.244,0,0,1-2.455.176,7.85,7.85,0,0,1-3.461-1.35c-.634-.409-1.26-.843-1.886-1.268a3.1,3.1,0,0,0-2.348-.442c-.454.049-.11.266-.041.3a18.38,18.38,0,0,1,3.167,1.972c.671.491,1.866,1.637,1.866,1.637l-.9.765s-.683-.765-.978-1.064a16.764,16.764,0,0,0-4.091-3.167.312.312,0,0,0-.409,0,16.835,16.835,0,0,0-4.091,3.167c-.295.3-.978,1.064-.978,1.064l-.9-.765a24.233,24.233,0,0,1,1.866-1.637,18.38,18.38,0,0,1,3.167-1.972c.07-.033.409-.25-.037-.3a3.1,3.1,0,0,0-2.353.442c-.626.409-1.252.851-1.886,1.268a7.827,7.827,0,0,1-3.461,1.35,6.245,6.245,0,0,1-2.455-.176,7.142,7.142,0,0,1-3.1-1.837.1.1,0,0,1,.065-.029,1.76,1.76,0,0,1,.2.1,6.184,6.184,0,0,0,4.112.479,13.917,13.917,0,0,0,2.774-.961c.646-.274,1.285-.581,1.952-.8a9.136,9.136,0,0,1,5.229-.119h.18a9.136,9.136,0,0,1,5.229.119c.667.217,1.305.524,1.952.8a13.917,13.917,0,0,0,2.774.961A6.184,6.184,0,0,0,38.42,36.9m4.337-3.858a5.6,5.6,0,0,1-1.857.982,10.7,10.7,0,0,1-2.925.438,35,35,0,0,0-3.813.331c-.078,0-.115-.025-.09-.049a.035.035,0,0,1,.02,0,4.71,4.71,0,0,0,2.488-2.406c.409-.765,1.064-2.263,1.227-2.508v-.061c-.086.025-1.334,1.092-1.9,1.616-.7.655-1.367,1.354-2.074,2.009a7.733,7.733,0,0,1-3.273,1.661l-.045.02a.369.369,0,0,0-.029.053h.029c.442.1,1.727.38,2.389.556a16.08,16.08,0,0,0,3.077.573,7.394,7.394,0,0,0,6.861-3.208h0a.1.1,0,0,0-.086,0m3.875-5.937a10.071,10.071,0,0,1-2.222,1.939,14.331,14.331,0,0,1-2.279,1.227,12.022,12.022,0,0,0-2.8,1.637l-.164.123c-.029.025-.061,0-.025-.053a7.759,7.759,0,0,0,1.722-4.177,16.376,16.376,0,0,1,.471-2.978.09.09,0,0,0-.02-.078,12.89,12.89,0,0,0-2.111,3.83c-.262.749-.511,1.5-.781,2.246a7.092,7.092,0,0,1-1.637,2.725l-.07.074a.166.166,0,0,0,0,.045l.258-.045c.863-.18,1.722-.385,2.594-.532a8.467,8.467,0,0,0,3.895-1.657,9.247,9.247,0,0,0,2.819-3.3,6.082,6.082,0,0,0,.43-1.072.087.087,0,0,0-.078,0M48.321,20.4a8.042,8.042,0,0,1-2.046,3.191,28.83,28.83,0,0,0-2.942,3.347c-.02.029-.07,0-.053-.037a8.689,8.689,0,0,0,.274-3.764c-.168-1.064-.634-2.222-.749-3.523a.1.1,0,0,0-.053-.057c-.025-.011,0,.025-.045.123a12.064,12.064,0,0,0-.548,2.586c-.057,1.06.143,2.422.057,3.514a9.577,9.577,0,0,1-.765,3.654v.106c.462-.3,1.784-1.076,2.655-1.661a10.148,10.148,0,0,0,2.8-2.676,8.026,8.026,0,0,0,1.461-4.656,1.273,1.273,0,0,0,0-.168c0-.056-.061.029-.065.037m-2.8.72a.026.026,0,0,0-.025.025c0,.025-.041-.025-.041-.033a5.865,5.865,0,0,0,.025-1.072,7.518,7.518,0,0,0-1.5-3.314,15.886,15.886,0,0,1-1.195-2.123.124.124,0,0,0-.07-.033,4.986,4.986,0,0,0,.041.716,23.916,23.916,0,0,0,1.342,5.225,7.247,7.247,0,0,1,.47,3.306c0,.1,0,.11.025.139.409-.581,1.186-1.4,1.669-1.98A8.264,8.264,0,0,0,48.1,14.168a2.824,2.824,0,0,0-.2-.516c-.085-.165-.057.053-.057.065,0,3.007-1.448,4.3-2.046,6.354-.119.409-.209.757-.286,1.06m0-6.211s-.143-.409-.282-.732c-.057-.147-.119-.282-.168-.38a5.967,5.967,0,0,0-1.833-2.025,9.539,9.539,0,0,1-1.53-1.767.093.093,0,0,0-.07,0H41.59c.025.127.442,1.452.708,2.07a11.884,11.884,0,0,0,1.587,2.406l.127.168a13.415,13.415,0,0,1,1.739,3.314c0,.025.061.045.061.037.082-.307.458-1.5.741-2.3a22.37,22.37,0,0,0,.651-2.455,8.48,8.48,0,0,0-1.522-5.949c-.02,0-.037.061-.033.07l.057.184c.025.086.049.172.07.262a8.229,8.229,0,0,1,.049,3.294,14.488,14.488,0,0,0-.241,2.618c0,.147.1,1.227.086,1.272s-.061,0-.065,0M42.049,3.862a3.713,3.713,0,0,1,.859,1.227,19.858,19.858,0,0,1,.618,2.717c.127.52.2.884.385,1.469,0,.053-.037.074-.065.025A7.859,7.859,0,0,0,41.46,7.324a5.5,5.5,0,0,1-1.555-1.4c-.078-.106-.16-.209-.237-.311,0,0-.057-.029-.07-.02a.7.7,0,0,0,0,.131A5.626,5.626,0,0,0,40.965,8.4c.561.532,1.191,1.006,1.788,1.5a15.384,15.384,0,0,1,2.095,2.177c.625.792.049.029.049,0,0-.155-.02-.409-.02-.7,0-.655.029-1.526.057-2.128,0-.241.02-.487.02-.728A5.254,5.254,0,0,0,44.565,6.4a4.959,4.959,0,0,0-2.336-2.553l-.2-.078a.105.105,0,0,0,0,.082M37.458,1.743a10.292,10.292,0,0,1,1.637,1.939,9.423,9.423,0,0,0,1.538,1.9c.409.409,1.612,1.35,1.915,1.583h.025A7.682,7.682,0,0,0,40.384,3.04,7.915,7.915,0,0,0,37.3,1.551a.1.1,0,0,0,0,.074c.053.049.094.078.143.127M12.571,36.323a16.116,16.116,0,0,0,3.081-.573c.659-.176,1.943-.454,2.389-.556h.025a.369.369,0,0,0-.029-.053l-.045-.02a7.733,7.733,0,0,1-3.273-1.661c-.7-.655-1.367-1.354-2.074-2.009-.565-.524-1.817-1.592-1.9-1.637a.1.1,0,0,0,0,.065c.184.245.843,1.743,1.227,2.508a4.7,4.7,0,0,0,2.492,2.406c.029.025,0,.061-.09.049h-.02a34.794,34.794,0,0,0-3.813-.331,10.731,10.731,0,0,1-2.925-.438,5.629,5.629,0,0,1-1.857-.982.1.1,0,0,0-.086,0A7.373,7.373,0,0,0,12.526,36.3m-.986-2.606.254.045a.1.1,0,0,0,0-.045l-.07-.074a7.139,7.139,0,0,1-1.637-2.725c-.27-.745-.52-1.5-.781-2.246A12.968,12.968,0,0,0,7.2,24.818c-.914-1.148,0,0,0,0a.086.086,0,0,0,0,.074,16.6,16.6,0,0,1,.475,2.983A7.651,7.651,0,0,0,9.4,32.052c.045.053,0,.078-.029.053L9.2,31.982a12.019,12.019,0,0,0-2.8-1.637,14.332,14.332,0,0,1-2.279-1.227A9.962,9.962,0,0,1,1.9,27.179a.1.1,0,0,0-.082,0,6.131,6.131,0,0,0,.434,1.072,9.2,9.2,0,0,0,2.815,3.3,8.483,8.483,0,0,0,3.9,1.657c.867.147,1.727.356,2.594.532M4.4,27.895c.871.585,2.193,1.362,2.655,1.661s.033-.057.02-.086,0,0,0-.02A9.5,9.5,0,0,1,6.311,25.8c-.086-1.092.115-2.455.057-3.514A11.591,11.591,0,0,0,5.82,19.7a.4.4,0,0,0-.045-.123c-.022-.038-.045.041-.053.057h0c-.115,1.3-.581,2.455-.753,3.523a8.689,8.689,0,0,0,.274,3.764c.02.053-.033.065-.049.037a29.231,29.231,0,0,0-2.946-3.347A8.134,8.134,0,0,1,.2,20.416c-.421-1.21-.053-.045-.065-.037a1.434,1.434,0,0,0,0,.168A7.992,7.992,0,0,0,1.6,25.219a10.206,10.206,0,0,0,2.8,2.676m-.458-3.907a.161.161,0,0,0,.025-.139,7.308,7.308,0,0,1,.471-3.306,23.47,23.47,0,0,0,1.35-5.208,6.439,6.439,0,0,0,.041-.716.124.124,0,0,0-.07.033,15.905,15.905,0,0,1-1.191,2.123,7.489,7.489,0,0,0-1.506,3.314,5.9,5.9,0,0,0,.025,1.072c.041.356,0,.041-.041.033a.041.041,0,0,1-.02-.025c-.082-.3-.172-.667-.286-1.06C2.134,18.063.693,16.762.693,13.755c0,0-.041-.065-.061-.065a3.328,3.328,0,0,0-.2.516,8.212,8.212,0,0,0,1.857,7.819c.524.638,1.264,1.4,1.665,1.98m-1.882-8.31c.278.818.655,1.992.736,2.3,0,0,.053,0,.061-.037a13.3,13.3,0,0,1,1.743-3.314l.123-.168a11.72,11.72,0,0,0,1.587-2.406A20.952,20.952,0,0,0,7.031,10c.2-.7,0,0-.033,0a.143.143,0,0,0-.07,0,9.689,9.689,0,0,1-1.6,1.784,6.009,6.009,0,0,0-1.833,2.025c-.049.1-.106.233-.168.376-.139.331-.278.728-.282.736s-.049.061-.065,0,.078-1.125.086-1.272a14.124,14.124,0,0,0-.241-2.618,8.178,8.178,0,0,1,.053-3.294.992.992,0,0,1,.07-.262c.025-.086.033-.119.053-.184a.1.1,0,0,0-.029-.07A8.462,8.462,0,0,0,1.442,13.17,22.118,22.118,0,0,0,2.1,15.625M3.668,9.2c.029.6.057,1.473.061,2.128v.7c0,.155.045,0,.045,0A15.071,15.071,0,0,1,5.865,9.844c.6-.5,1.227-.97,1.788-1.5A5.626,5.626,0,0,0,9.019,5.667a.831.831,0,0,0,.02-.131.093.093,0,0,0-.07.02c-.082.1-.16.2-.237.311a5.548,5.548,0,0,1-1.555,1.4A7.948,7.948,0,0,0,4.789,9.238c-.029.049-.082.029-.065-.025.18-.585.258-.949.385-1.469a19.27,19.27,0,0,1,.618-2.717A3.771,3.771,0,0,1,6.585,3.8c.366-.348,0,0,0,0a.163.163,0,0,0,0-.082,1.877,1.877,0,0,0-.209.078A4.973,4.973,0,0,0,4.052,6.333a5.118,5.118,0,0,0-.409,2.132v.728m2.34-2.074h.029c.3-.233,1.5-1.17,1.915-1.583a9.712,9.712,0,0,0,1.538-1.9A10.265,10.265,0,0,1,11.1,1.694l.143-.127s.02-.053,0-.074A7.944,7.944,0,0,0,8.164,2.983,7.643,7.643,0,0,0,5.975,7.111M23.822,20.9c.127-.188-.184-.3-.266.02s.143.168.266-.02m3.379-7.81c-.123-.061-.614.54-.536.638a2.175,2.175,0,0,0,.536-.638m.106-.106c.074.041.409-.139.34-.184s-.446-.229-.454-.119c0,.176.041.266.115.3M33.265,18.5c.168-.037.147-.307,0-.3s-.323.229-.278.233c.115,0,.2.086.286.065m-2.164-5.912c-.135,0-.168.147-.041.213a.487.487,0,0,0,.327-.049c.086-.057.188-.127.172-.262s-.2-.315-.1-.409.217.057.323,0,.119-.123.119-.233-.053-.352-.229-.352-.36.352-.372.372a.409.409,0,0,0,0,.3c.078.184.049.409-.2.409m2.921.02c0,.082.229.646.254.818s.074.614.2.569.07-.315.053-.409a5.546,5.546,0,0,0-.233-.961c-.061-.192-.331-.818-.409-.794s.135.454.168.6a.577.577,0,0,1,0,.209M32.512,5.106c.143.057.143-.213-.1-.409s-.569-.1-.483,0a2.8,2.8,0,0,0,.585.409M25.863,3.2c-.29-.184-.049-.442-.282-.618a.733.733,0,0,0-.728.143c-.2.254.254.172.409.241s.573.409.642.348,0-.082-.045-.115m1.759-.884c-.389-.18-1.857-.172-1.821.213s.847.02,1.06,0,1.1-.037.761-.213M23.58,19.426c-.074-.037-.237.033-.258-.041s-.143-.061-.115,0-.037.139.029.221a.292.292,0,0,0,.364,0,.14.14,0,0,0,0-.188m-.818-2.962c.123,0,.119-.094.188-.09s0,.094.135.094.25-.315-.143-.315c-.319,0-.274.307-.18.311m.507.323c-.241-.061-.192.078-.344.094-.245.025-.025-.184-.147-.282-.053-.041-.2.172-.209.3,0,.065,0,.282.094.286a8.432,8.432,0,0,1,.843.115c.184.045,0-.458-.237-.516M20.577,19.7c.074,0,.127-.266.082-.409s-.286-.033-.307.029.151.368.225.368m-3.559-.025c0-.115,0-.45-.078-.516s-.07.057-.127.049-.041-.16-.1-.16.02.266.082.409.209.409.221.2m-.086-.818a3.316,3.316,0,0,0,.123-.818.693.693,0,0,0-.16-.409c-.029,0,0,.147.025.352a3.015,3.015,0,0,1-.135.667c0,.094.09.311.147.188M12.35,28.836a16.889,16.889,0,1,1,11.938,4.942A16.895,16.895,0,0,1,12.35,28.836M8.143,17.261a16.026,16.026,0,0,0,4.472,10.809l1.837-1.833a13.438,13.438,0,0,1-1.015-1.2.963.963,0,0,1-.389-.262c-.155-.192-.237-.479-.311-.479s0,.18-.172.2c-.229.033-.548-.532-.675-.736s-.409-.245-.511-.471c-.033-.065-.115-.27-.192-.147-.123.2-.556-.442-.667-.409s0,.176-.078.233-.483-.491-.622-.43-.155.135-.164.295.2.593.127.626a3.381,3.381,0,0,1-.511-1.35c.115-.057.053.057.127,0s-.053-.139-.086-.282-.168-.155-.18-.323.225-.11.225-.192a.271.271,0,0,1,.086-.229c.078-.07.262,0,.3-.233s.135,0,.155.135.466.217.487.1-.176-.074-.176-.139c0-.127.241,0,.409,0,.074,0,.2-.11.368-.025a1.227,1.227,0,0,0,.409.155,13.464,13.464,0,0,1-.667-3.854H8.143M22.852,13.5c.123-.217.409-.462.409-.409s-.172.2-.266.364a3.623,3.623,0,0,1,.929-.217v-2.59a6.231,6.231,0,0,0-3.793,1.575L21.96,14.05a3.619,3.619,0,0,1,.683-.446l.2-.09m-1.371,4.222V17.56a.146.146,0,0,1,0-.033.09.09,0,0,1,.09-.029c.065,0,.147.049.225.053a.176.176,0,0,0,.16-.074A.713.713,0,0,0,22,17.384a.253.253,0,0,0,.025-.086.074.074,0,0,0,0-.033c0-.029-.053-.037-.127,0h-.045a.331.331,0,0,1-.09,0h-.041a.152.152,0,0,1-.1-.061.228.228,0,0,1-.025-.045.223.223,0,0,0-.029-.053.486.486,0,0,0-.184-.143.532.532,0,0,1-.1-.074.2.2,0,0,1-.053-.049l-.037-.041-.025-.025h-.155a.3.3,0,0,0-.266.09l-.045.045-.041.053a.29.29,0,0,0-.041.07,1.041,1.041,0,0,0-.082.176c-.209.548-.454.38-.409.577,0,.025.061.041.147.045h.606l.053-.02.086-.033a.3.3,0,0,1,.078-.02.262.262,0,0,1,.278.1.584.584,0,0,1,.074.209V18a.111.111,0,0,0,0-.037v-.041m-4.91,4.28c.115.241.311.442.315.728a.935.935,0,0,1,0,.151c.131.164.27.327.409.483L19.1,21.733A6.958,6.958,0,0,1,17.4,18.264a.115.115,0,0,1-.135-.049c-.037-.061,0-.127.1-.192-.029-.2-.045-.409-.057-.593H16.081c0,.2.09.475-.037.573s-.254,0-.352,0c-.233.033-.286.315-.225.507a.708.708,0,0,1,.074.368c0,.127-.09.229.119.34s.5.487.471.556-.221-.082-.233.074.278-.025.262.3a1.267,1.267,0,0,0,.09.524,1.605,1.605,0,0,1,.233.753,1.635,1.635,0,0,0,.057.769m-1.612-3.1c.262.094.761-.119.409-.528-.147-.172.1-.663.139-.757s.266-.233.335-.409H14.726a9.438,9.438,0,0,0,.209,1.673m.2,6.587c-.192-.123-.372-.2-.483-.135h-.025c.1.11.2.221.3.327l.209-.2M17.889,14.23A6.99,6.99,0,0,1,19.1,12.364l-1.808-1.939a9.506,9.506,0,0,0-2.541,6.137h1.277c.217-.344.143-.606.217-.818a2.8,2.8,0,0,1,.286-.536c.094-.151.2-.323.409-.323.409,0,.524-.221.786-.344s.732-.192.679-.331-.974.274-.994.2.295-.11.434-.237a.4.4,0,0,1,.082-.053m1.718-1.354A6.1,6.1,0,0,0,18.8,13.96l.078-.037a1.15,1.15,0,0,1,.9-.07,3.861,3.861,0,0,1,.646.454c.057.041.082-.041.348-.078.115,0,.139.094.3.115a.781.781,0,0,0,.164,0L19.64,12.753m-2.25,3.273a1.125,1.125,0,0,0-.385-.106.537.537,0,0,0-.516.241.52.52,0,0,0-.074.385h.925a3.663,3.663,0,0,1,.049-.52m.777,2.074a6.27,6.27,0,0,0,1.473,2.958l1.829-1.829a3.669,3.669,0,0,1-.409-.585.485.485,0,0,0-.07.1c-.037.082,0,.356-.1.471s-.536-.331-.663-.372a.189.189,0,0,0-.237.182v0c.02.143,0,.2-.07.209s-.364-.2-.229-.25-.041-.2-.11-.25-.3,0-.389-.127a.79.79,0,0,0-.323-.241c-.037,0-.217-.086-.335-.025s-.192-.049-.262-.119l-.119-.123m1.469-6.366a6.958,6.958,0,0,1,4.3-1.784V7.364a9.5,9.5,0,0,0-6.137,2.541l1.825,1.829M17.275,9.4a10.229,10.229,0,0,1,6.64-2.758V4.059a12.818,12.818,0,0,0-8.453,3.5L17.287,9.39M14.951,8.072a12.8,12.8,0,0,0-3.51,8.49h2.582a10.229,10.229,0,0,1,2.758-6.64Zm-3.51,9.185a12.689,12.689,0,0,0,.7,3.838h.041a1.641,1.641,0,0,0,.781-.131c.254-.2,0-.9.176-1.191.2-.364.687-1.227.818-1.227s.127.09.192.106a10.436,10.436,0,0,1-.143-1.4H11.441ZM23.928,30.472a13.534,13.534,0,0,1-8.976-3.723l-1.833,1.833a16.043,16.043,0,0,0,10.809,4.472V30.472Zm0-3.306a10.173,10.173,0,0,1-6.2-2.361,1.219,1.219,0,0,1,.1.139c.119.2.536.622.27.79s-.581.045-.786.041-.548.331-.736.364a.958.958,0,0,1-.614-.065,1.309,1.309,0,0,1-.209-.127l-.29.29a12.8,12.8,0,0,0,8.465,3.514V27.167Zm0-.908a2.671,2.671,0,0,1-1.043-.07c-.27-.188-.593-.372-.63-.52-.065-.258-.409-.45-.409-.691s.372-.36.274-.63.131-.491.52-.679a6.989,6.989,0,0,1-3-1.592l-1.841,1.849a9.453,9.453,0,0,0,6.137,2.537Zm-.11-3.367c.225.168.491-.053.671-.086.274-.045.565-.123.818-.147s0,.356.147.372.986.155,1.043-.025.057-.213.225-.25a1.8,1.8,0,0,0,.847-.27c.1-.074.3-.1.36-.213s-.041-.634-.237-.548c-.094.041-.213.176-.409.278s-.315.135-.446-.041.07-.282.168-.389c.151-.168.29-.335.458-.335.065,0,.409-.172.385-.331s-.446,0-.54-.065,0-.209-.049-.229-.2.18-.082.29c.057.057-.1.221-.274.106s-.172.409-.16.491.2.065.074.229-.168.041-.262.123-.135.135,0,.274-.061.323-.1.123c-.029-.131-.3-.09-.356-.241s-.282-.135-.552-.278c-.209-.106-.184.209.168.29s.286.1.2.29-.057-.119-.409-.213c-.229-.061-.237-.184-.409-.18s-.123.176-.315.131-.168.16-.3.217-.155.364-.319.446c-.25.123-.757.033-.732-.213s.033-.43.176-.516.331.143.5.065.139-.274.029-.409c-.033-.041-.168-.106-.164-.151s.262-.074.409-.16a3.526,3.526,0,0,0,.34-.376c.07-.057.213-.07.225-.123s-.1-.184-.09-.266.041-.143.1-.139.139.188.1.229.033.131.119.1.409-.155.479-.176-.033-.307,0-.356.074,0,.119-.029S25.675,20.1,25.7,20s.335-.16.245-.217-.2.106-.274.139c-.16.07-.233-.1-.229-.233,0-.065.09-.29,0-.335s-.123.209-.139.262a.41.41,0,0,0,.025.409c.061.115.029.511-.09.556s-.188-.2-.25-.3a.062.062,0,0,0-.065-.033v.02l-.041.065a1.243,1.243,0,0,0-.053.127.123.123,0,0,1-.09.082,3.421,3.421,0,0,1-.409.025h-.155a1.206,1.206,0,0,0,.074.225c.074.135.209.245.184.348s-.442.188-.475.115.106-.274.094-.356c0-.151-.1-.241-.09-.348A3.655,3.655,0,0,1,22,19.728l-1.829,1.829a6.268,6.268,0,0,0,3.294,1.526c.176-.11.25-.3.389-.2m2.357,4.091a10.328,10.328,0,0,1-1.526.168v2.586a12.825,12.825,0,0,0,3.036-.45c-.2-.172-.295-.45-.544-.536-.43-.147-.544-.409-.315-.8.127-.2.078-.286-.07-.507a1.227,1.227,0,0,0-.581-.462m-1.526-.552a9.432,9.432,0,0,0,1.227-.131.409.409,0,0,0-.376-.065c-.409.115-.278-.217-.863-.135v.331m0,6.608a16.034,16.034,0,0,0,10.809-4.472l-1.833-1.833a13.687,13.687,0,0,1-3.191,2.254,6.231,6.231,0,0,1-1.227.667,1.2,1.2,0,0,1-.483.155.27.27,0,0,1-.147-.045,13.631,13.631,0,0,1-3.94.691v2.582M31.849,9.84a.146.146,0,0,1,0,.033.049.049,0,0,1-.025.033,10.155,10.155,0,0,1,1.146,1.489c.041-.049.074-.094.127-.033s-.094.295.176.245c.164-.033.127.176,0,.29.086.147.164.3.241.454.094.045.168.094.18.16a4.181,4.181,0,0,1,.147.581,9.619,9.619,0,0,1,.34,1c.135-.11.282-.049.3.139a1.149,1.149,0,0,1-.127.569,10.285,10.285,0,0,1,.209,1.718h2.586a12.987,12.987,0,0,0-1.1-4.848c-.049.041-.119.045-.2.155s-.344-.041-.458-.184c-.217-.27-.728-1.019-.957-1.06s-.335-.278-.536-.319-.454-.155-.487-.368v0a.341.341,0,0,0-.335-.34.981.981,0,0,1-.61-.327l-.618.618M33.42,24.908a1.047,1.047,0,0,1,.07.655l.143.139a12.821,12.821,0,0,0,3.514-8.465H34.561a10.251,10.251,0,0,1-2.753,6.64l.929.933a.18.18,0,0,0,.02-.037,1.494,1.494,0,0,0,.057-.528c0-.1.364-.074.409.086a4.893,4.893,0,0,0,.217.577m-2.132,1.776c-.11.2.323.295.241.491s-.409.458-.356.556a12.751,12.751,0,0,0,1.947-1.518l-1.825-1.825a4.312,4.312,0,0,1-.409.344c-.033.213,0,.376.254.454s.741.368.642.642a7.741,7.741,0,0,1-.511.855m1.1-10.6c.143.2-.335.143-.438.409a.142.142,0,0,1-.02.033h1.907a6.9,6.9,0,0,0-.07-.818l-.041.082c-.143.3-.168.119-.155,0a1.817,1.817,0,0,1,.139-.487l-.049-.262a.666.666,0,0,1-.27.2c-.082.041-.164.237-.192.315s-.25-.02-.409.061c-.3.143-.61.168-.389.479m.356-3.654A9.753,9.753,0,0,0,31.313,10.4l-1.829,1.829a7.1,7.1,0,0,1,.818,1.133,1.051,1.051,0,0,1,.7.364c.135.172.52.516.462.671s.045.213.131.274a.23.23,0,0,0,.3,0c.135-.172.155-.409.335-.548s.667.34.667.434-.119.119-.151.286c-.045.233-.241.507,0,.585.327.115.368,0,.528-.25.07-.106.057-.278.135-.38a.629.629,0,0,1,.188-.139,9.166,9.166,0,0,0-.491-1.485.38.38,0,0,0-.172-.11c-.119-.041-.053-.143-.209-.192s-.245-.106-.262-.409.213.082.266.037.025-.025.037-.041m-3.085,1.26A6.1,6.1,0,0,0,29.1,12.9a.583.583,0,0,1-.221-.041l-.6.6a3.067,3.067,0,0,1,.385.053c.143.053.082-.446.327-.409s.315.209.11.286.041.192-.16.262.147.225.143.3-.25.135.123.25,0-.311.057-.372.266.115.323.033.053-.082.1-.143M28.972,22.7c-.131-.041-.847-.315-.843-.217s-.123.029-.164.07a5.624,5.624,0,0,0,1.182.565,1.482,1.482,0,0,0,.712.025c.254-.049.327.065.446.061s.282-.237.38-.376a5.3,5.3,0,0,0,.282-.483c.07-.074.344.5.311.859a.44.44,0,0,1-.02.164l.029.025a9.514,9.514,0,0,0,2.545-6.137h-1.96a4.314,4.314,0,0,1,.311.511c.1.2.155.528.323.544.27.025.548.25.552.438,0,.389-1.195.483-1.354.434s-.225-.049-.233.16-.438.241-.61.385-.209.45-.335.655a4.7,4.7,0,0,1-.646.63c-.29.2-.843.217-.589.352.18.094.585.127.536.033s.029-.119.1-.029.245-.065.241-.188-.029-.307.078-.311c.172,0,.356-.209.446-.188s.229.237.131.908a3.325,3.325,0,0,1-.548,1.342c-.135.225-.274.053-.458-.041a5.74,5.74,0,0,0-.818-.2m6.968,5.38a16.026,16.026,0,0,0,4.472-10.809H37.855a13.534,13.534,0,0,1-3.723,8.976l1.833,1.833M40.44,16.562a16.042,16.042,0,0,0-4.476-10.83L34.05,7.647a6.326,6.326,0,0,0,.97,1.162c.192.2.409.385.561.556S36.787,10.83,36.586,11l-.045.041a13.7,13.7,0,0,1,1.313,5.482h2.582M24.644,3.314A13.5,13.5,0,0,1,30.728,4.93a1.955,1.955,0,0,0,.458-.1c.233-.106.683.135.9.262s.352.286.569.409a1.521,1.521,0,0,1,.663.851c.082.364.311.34.2.487-.057.074.029.1.139.164l1.8-1.792A16.039,16.039,0,0,0,24.644.732V3.314Zm0,3.306A10.23,10.23,0,0,1,30.491,8.71c-.184-.245-.368-.5-.458-.589-.16-.168-.749-.376-.691-.475s.589.327.679.25-.266-.573-.237-.589a2.452,2.452,0,0,1,.7.79c.09.135.335.07.524.2s.176.3.315.409c.025.02.319.192.147.172-.049,0-.123-.11-.18-.057s.02.213.123.409l.855-.859c-.123-.254-.368-.585-.54-.626s-.286.1-.409.2-.27.135-.29.065q-.009-.172,0-.344c0-.1-.09-.176-.115-.27-.061-.225.029-.475-.11-.622a4.049,4.049,0,0,1-.364-.6,1.9,1.9,0,0,1-.372-.79,12.846,12.846,0,0,0-5.441-1.367l.016,2.6Zm0,3.31a6.927,6.927,0,0,1,4.3,1.784l1.825-1.829a9.5,9.5,0,0,0-6.137-2.541l.008,2.586Zm0,3.31a3.669,3.669,0,0,1,.724.147c.061-.151.217-.225.34-.311s.262-.217.237.057a.524.524,0,0,1-.2.409,3.608,3.608,0,0,1,.72.409l.143.115.25-.25a.056.056,0,0,1,0-.029c0-.139.2-.307.442-.409l.818-.818h-.061c-.106,0-.262.213-.368.151s.356-.491.569-.409l.094.037.1-.1a6.231,6.231,0,0,0-3.793-1.575l-.016,2.578Zm-.3.708h-.057a3.022,3.022,0,0,0-.88.131c-.037.041-.061.078-.041.106.07.1.286-.115.315.086s-.241.041-.217.147.2.049.2.168a.586.586,0,0,1-.2.376c-.115.074-.732.155-.794.3a1.047,1.047,0,0,1-.2.344c-.1.11-.6.409-.6.483,0,.18.237-.049.307-.123a2.724,2.724,0,0,1,.409-.2c.16-.09.3.311.065.327-.147,0-.27.409-.5.344-.057-.02-.225-.123-.258,0s.34.127.462.209c.3.2-.233.184-.319.241s-.041.168.074.123.262-.164.335.025c.09.258-.409,1.195-.573,1.1-.082-.057-.168.02-.245.053a2.959,2.959,0,0,0,.38.589c.1-.164.262-.409.331-.409s.061-.078.1-.143.16,0,.168-.11.29-.27.323-.434c0-.086-.09-.176-.045-.245a.224.224,0,0,1,.147-.123c.057-.02.192.115.233.057s.241,0,.409.082c.07.045.2,0,.286.11s0,.18,0,.213.07,0,.1,0-.3.278-.262.409-.307.691-.409.781-.352,0-.438,0-.11.106-.254.07a.609.609,0,0,0-.364.078,2.924,2.924,0,0,0,1.935.732,3.023,3.023,0,0,0,.471-.041.875.875,0,0,0,.151-.409.815.815,0,0,1,.041-.266c.041-.065.278-.36.376-.356s.139.078.262.041c.233-.074.38,0,.385.09s-.3.1-.286.18.225.139.3.057a.381.381,0,0,0,.078-.389c-.094-.119-.09-.168.045-.123s.082-.3.164-.409-.2-.053-.327-.033-.225-.241-.225-.331.229.229.348.237a.328.328,0,0,0,.29-.262c0-.115-.254-.127-.295-.266-.02-.074.209,0,.192-.074s.025-.221-.123-.282-.274-.524-.409-.552-.188.11-.25.16-.164-.037-.11-.086a1.068,1.068,0,0,0,.282-.331c.057-.2.311,0,.266-.262s-.3-.237-.184-.38a.2.2,0,0,0-.213-.331c-.11.02-.229-.164-.241-.319,0-.086-.258-.074-.245-.168.02-.184-.262-.2-.434-.192a1,1,0,0,1-.544-.319c-.037-.065-.274.057-.2-.192s.315.045.409-.029a.16.16,0,0,0,.057-.213M23.9.773A16.047,16.047,0,0,0,13.086,5.249l1.833,1.833A13.546,13.546,0,0,1,23.9,3.355V.773M12.575,5.757A16.043,16.043,0,0,0,8.144,16.562h2.582a13.538,13.538,0,0,1,3.719-9L12.607,5.728" transform="translate(371 271)" fill="#009edb"/>
      <g id="Grupo_1" data-name="Grupo 1">
        <g id="un-dots" transform="translate(393.208 289.159)">
          <path id="Caminho_1" data-name="Caminho 1" d="M36.254,23.3a1.462,1.462,0,1,1,1.462-1.462A1.456,1.456,0,0,1,36.254,23.3" fill="#ec3225"/>
          <path id="Caminho_2" data-name="Caminho 2" d="M43.371,23.3a1.462,1.462,0,1,1,1.462-1.462A1.456,1.456,0,0,1,43.371,23.3" transform="translate(3.807)" fill="#0db04b"/>
          <path id="Caminho_3" data-name="Caminho 3" d="M50.462,23.3a1.462,1.462,0,1,1,1.462-1.462A1.456,1.456,0,0,1,50.462,23.3" transform="translate(7.599)" fill="#ef4e37"/>
          <path id="Caminho_4" data-name="Caminho 4" d="M57.553,23.3a1.462,1.462,0,1,1,1.462-1.462A1.456,1.456,0,0,1,57.553,23.3" transform="translate(11.391)" fill="#ffc10e"/>
          <path id="Caminho_5" data-name="Caminho 5" d="M64.67,23.3a1.462,1.462,0,1,1,1.462-1.462A1.456,1.456,0,0,1,64.67,23.3" transform="translate(15.198)" fill="#f38020"/>
          <path id="Caminho_6" data-name="Caminho 6" d="M71.761,23.3a1.462,1.462,0,1,1,1.462-1.462A1.456,1.456,0,0,1,71.761,23.3" transform="translate(18.99)" fill="#f9a533"/>
          <path id="Caminho_7" data-name="Caminho 7" d="M78.852,23.3a1.462,1.462,0,1,1,1.462-1.462A1.456,1.456,0,0,1,78.852,23.3" transform="translate(22.783)" fill="#387c46"/>
          <path id="Caminho_8" data-name="Caminho 8" d="M39.826,23.3a1.462,1.462,0,1,1,1.462-1.462A1.482,1.482,0,0,1,39.826,23.3" transform="translate(1.91)" fill="#daa63c"/>
          <path id="Caminho_9" data-name="Caminho 9" d="M46.917,23.3a1.462,1.462,0,1,1,1.462-1.462A1.456,1.456,0,0,1,46.917,23.3" transform="translate(5.703)" fill="#d12333"/>
          <path id="Caminho_10" data-name="Caminho 10" d="M54.008,23.3a1.462,1.462,0,1,1,1.462-1.462A1.456,1.456,0,0,1,54.008,23.3" transform="translate(9.495)" fill="#44c7f4"/>
          <path id="Caminho_11" data-name="Caminho 11" d="M61.125,23.3a1.462,1.462,0,1,1,1.462-1.462A1.482,1.482,0,0,1,61.125,23.3" transform="translate(13.302)" fill="#a61d44"/>
          <path id="Caminho_12" data-name="Caminho 12" d="M68.215,23.3a1.462,1.462,0,1,1,1.462-1.462A1.456,1.456,0,0,1,68.215,23.3" transform="translate(17.094)" fill="#ed4094"/>
          <path id="Caminho_13" data-name="Caminho 13" d="M75.306,23.3a1.462,1.462,0,1,1,1.462-1.462A1.456,1.456,0,0,1,75.306,23.3" transform="translate(20.887)" fill="#bb892c"/>
          <path id="Caminho_14" data-name="Caminho 14" d="M82.423,23.3a1.462,1.462,0,1,1,1.462-1.462A1.482,1.482,0,0,1,82.423,23.3" transform="translate(24.693)" fill="#00adee"/>
          <path id="Caminho_15" data-name="Caminho 15" d="M89.514,23.3a1.462,1.462,0,1,1,1.462-1.462A1.456,1.456,0,0,1,89.514,23.3" transform="translate(28.486)" fill="#006cb6"/>
          <path id="Caminho_16" data-name="Caminho 16" d="M85.969,23.3a1.462,1.462,0,1,1,1.462-1.462A1.456,1.456,0,0,1,85.969,23.3" transform="translate(26.589)" fill="#8bc53f"/>
          <path id="Caminho_17" data-name="Caminho 17" d="M93.06,23.3a1.462,1.462,0,1,1,1.462-1.462A1.456,1.456,0,0,1,93.06,23.3" transform="translate(30.382)" fill="#174b6e"/>
        </g>
        <text id="NAÇÕES_UNIDAS" data-name="NAÇÕES UNIDAS" transform="translate(474 284)" fill="#009edb" font-size="12" font-family="Roboto-Bold, Roboto" font-weight="700"><tspan x="-46.459" y="0">NAÇÕES UNIDAS</tspan></text>
        <text id="Brasil" transform="translate(428 298)" fill="#009edb" font-size="10" font-family="Roboto-Regular, Roboto"><tspan x="0" y="0">Brasil</tspan></text>
      </g>
    </g>
    <text id="Nações_unidas-2" data-name="Nações unidas" transform="translate(539 284)" fill="#222" font-size="12" font-family="Roboto-Regular, Roboto"><tspan x="0" y="0">Nações unidas</tspan></text>
    <text id="Brasil-2" data-name="Brasil" transform="translate(539 298)" fill="#222" font-size="10" font-family="Roboto-Bold, Roboto" font-weight="700"><tspan x="0" y="0">Brasil</tspan></text>
    <rect id="Retângulo_1" data-name="Retângulo 1" width="1" height="40" transform="translate(530 271)" fill="#cecece" opacity="0.4"/>
  </g>
</svg>
